<svg width="80" height="81" viewBox="0 0 80 81" fill="none" xmlns="http://www.w3.org/2000/svg">
<g clip-path="url(#paint0_diamond_4_260_clip_path)" data-figma-skip-parse="true"><g transform="matrix(-0.0242331 0.0376577 -0.0221638 -0.0188616 39.5131 39.8606)"><rect x="0" y="0" width="1011.14" height="1416.87" fill="url(#paint0_diamond_4_260)" opacity="1" shape-rendering="crispEdges"/><rect x="0" y="0" width="1011.14" height="1416.87" transform="scale(1 -1)" fill="url(#paint0_diamond_4_260)" opacity="1" shape-rendering="crispEdges"/><rect x="0" y="0" width="1011.14" height="1416.87" transform="scale(-1 1)" fill="url(#paint0_diamond_4_260)" opacity="1" shape-rendering="crispEdges"/><rect x="0" y="0" width="1011.14" height="1416.87" transform="scale(-1)" fill="url(#paint0_diamond_4_260)" opacity="1" shape-rendering="crispEdges"/></g></g><path d="M16.667 0.226471C16.6672 0.0227056 16.9158 -0.0770455 17.0566 0.0702209L31.1514 14.8437C31.2716 14.9698 31.3388 15.1372 31.3389 15.3114V34.8964L47.1113 26.1776V15.4999C47.1114 15.3259 47.1788 15.1582 47.2988 15.0321L61.3936 0.259674C61.5343 0.11224 61.7828 0.21131 61.7832 0.414948V78.7226C61.7829 78.9283 61.5301 79.0272 61.3906 78.8759L47.291 63.5732C47.1757 63.448 47.1114 63.2834 47.1113 63.1132V44.5585L31.3389 53.2763V62.9247C31.3388 63.0949 31.2745 63.2595 31.1592 63.3847L17.0596 78.6874C16.92 78.8382 16.6673 78.7396 16.667 78.5341V0.226471Z" data-figma-gradient-fill="{&#34;type&#34;:&#34;GRADIENT_DIAMOND&#34;,&#34;stops&#34;:[{&#34;color&#34;:{&#34;r&#34;:1.0,&#34;g&#34;:0.45882353186607361,&#34;b&#34;:0.13333334028720856,&#34;a&#34;:1.0},&#34;position&#34;:0.58595991134643555},{&#34;color&#34;:{&#34;r&#34;:0.80288463830947876,&#34;g&#34;:0.31684201955795288,&#34;b&#34;:0.038600221276283264,&#34;a&#34;:1.0},&#34;position&#34;:1.0}],&#34;stopsVar&#34;:[{&#34;color&#34;:{&#34;r&#34;:1.0,&#34;g&#34;:0.45882353186607361,&#34;b&#34;:0.13333334028720856,&#34;a&#34;:1.0},&#34;position&#34;:0.58595991134643555},{&#34;color&#34;:{&#34;r&#34;:0.80288463830947876,&#34;g&#34;:0.31684201955795288,&#34;b&#34;:0.038600221276283264,&#34;a&#34;:1.0},&#34;position&#34;:1.0}],&#34;transform&#34;:{&#34;m00&#34;:-48.466144561767578,&#34;m01&#34;:-44.327518463134766,&#34;m02&#34;:85.909934997558594,&#34;m10&#34;:75.315483093261719,&#34;m11&#34;:-37.723167419433594,&#34;m12&#34;:21.064441680908203},&#34;opacity&#34;:1.0,&#34;blendMode&#34;:&#34;NORMAL&#34;,&#34;visible&#34;:true}"/>
<defs>
<clipPath id="paint0_diamond_4_260_clip_path"><path d="M16.667 0.226471C16.6672 0.0227056 16.9158 -0.0770455 17.0566 0.0702209L31.1514 14.8437C31.2716 14.9698 31.3388 15.1372 31.3389 15.3114V34.8964L47.1113 26.1776V15.4999C47.1114 15.3259 47.1788 15.1582 47.2988 15.0321L61.3936 0.259674C61.5343 0.11224 61.7828 0.21131 61.7832 0.414948V78.7226C61.7829 78.9283 61.5301 79.0272 61.3906 78.8759L47.291 63.5732C47.1757 63.448 47.1114 63.2834 47.1113 63.1132V44.5585L31.3389 53.2763V62.9247C31.3388 63.0949 31.2745 63.2595 31.1592 63.3847L17.0596 78.6874C16.92 78.8382 16.6673 78.7396 16.667 78.5341V0.226471Z"/></clipPath><linearGradient id="paint0_diamond_4_260" x1="0" y1="0" x2="500" y2="500" gradientUnits="userSpaceOnUse">
<stop offset="0.58596" stop-color="#FF7522"/>
<stop offset="1" stop-color="#CD510A"/>
</linearGradient>
</defs>
</svg>
